<svg xmlns="http://www.w3.org/2000/svg" viewBox="0 0 720 480" font-family="ui-monospace,Menlo,Consolas,monospace" font-size="13">
<rect width="720" height="480" fill="#0e0e0e"/>
<line x1="158.0" y1="222.0" x2="562.0" y2="222.0" stroke="#242424" stroke-width="1.4"/>
<line x1="360.0" y1="424.0" x2="360.0" y2="20.0" stroke="#242424" stroke-width="1.4"/>
<circle cx="360.0" cy="222.0" r="101.0" fill="none" stroke="#242424" stroke-dasharray="3 5"/>
<circle cx="360.0" cy="222.0" r="202.0" fill="none" stroke="#242424" stroke-dasharray="3 5"/>
<circle cx="364.6" cy="229.8" r="4" fill="none" stroke="#f3f3f2" stroke-width="2" opacity="0.85"/>
<circle cx="362.8" cy="231.1" r="4" fill="#f3f3f2" stroke="#0e0e0e" stroke-width="1.4"/>
<circle cx="353.3" cy="225.1" r="4" fill="none" stroke="#c8c8c8" stroke-width="2" opacity="0.85"/>
<circle cx="354.3" cy="226.2" r="4" fill="#c8c8c8" stroke="#0e0e0e" stroke-width="1.4"/>
<circle cx="356.0" cy="224.7" r="4" fill="none" stroke="#a0a0a0" stroke-width="2" opacity="0.85"/>
<circle cx="356.5" cy="225.6" r="4" fill="#a0a0a0" stroke="#0e0e0e" stroke-width="1.4"/>
<circle cx="370.9" cy="224.3" r="4" fill="none" stroke="#7a7a79" stroke-width="2" opacity="0.85"/>
<circle cx="368.4" cy="224.0" r="4" fill="#7a7a79" stroke="#0e0e0e" stroke-width="1.4"/>
<circle cx="375.5" cy="222.5" r="4" fill="none" stroke="#555555" stroke-width="2" opacity="0.85"/>
<circle cx="372.3" cy="221.5" r="4" fill="#555555" stroke="#0e0e0e" stroke-width="1.4"/>
<circle cx="360.0" cy="222.0" r="4" fill="none" stroke="#343434" stroke-width="2" opacity="0.85"/>
<circle cx="360.0" cy="222.0" r="4" fill="#343434" stroke="#0e0e0e" stroke-width="1.4"/>
<line x1="407.8" y1="230.3" x2="397.0" y2="228.9" stroke="#735244" stroke-width="2" opacity="0.75"/>
<circle cx="407.8" cy="230.3" r="6" fill="none" stroke="#735244" stroke-width="2" opacity="0.85"/>
<circle cx="397.0" cy="228.9" r="6" fill="#735244" stroke="#0e0e0e" stroke-width="1.4"/>
<line x1="454.0" y1="263.4" x2="430.0" y2="265.8" stroke="#c29682" stroke-width="2" opacity="0.75"/>
<circle cx="454.0" cy="263.4" r="6" fill="none" stroke="#c29682" stroke-width="2" opacity="0.85"/>
<circle cx="430.0" cy="265.8" r="6" fill="#c29682" stroke="#0e0e0e" stroke-width="1.4"/>
<line x1="341.7" y1="183.2" x2="349.8" y2="176.3" stroke="#627a9d" stroke-width="2" opacity="0.75"/>
<circle cx="341.7" cy="183.2" r="6" fill="none" stroke="#627a9d" stroke-width="2" opacity="0.85"/>
<circle cx="349.8" cy="176.3" r="6" fill="#627a9d" stroke="#0e0e0e" stroke-width="1.4"/>
<line x1="366.7" y1="256.8" x2="361.4" y2="263.7" stroke="#576c43" stroke-width="2" opacity="0.75"/>
<circle cx="366.7" cy="256.8" r="6" fill="none" stroke="#576c43" stroke-width="2" opacity="0.85"/>
<circle cx="361.4" cy="263.7" r="6" fill="#576c43" stroke="#0e0e0e" stroke-width="1.4"/>
<line x1="372.5" y1="169.1" x2="375.8" y2="157.2" stroke="#8580b1" stroke-width="2" opacity="0.75"/>
<circle cx="372.5" cy="169.1" r="6" fill="none" stroke="#8580b1" stroke-width="2" opacity="0.85"/>
<circle cx="375.8" cy="157.2" r="6" fill="#8580b1" stroke="#0e0e0e" stroke-width="1.4"/>
<line x1="247.9" y1="237.9" x2="269.3" y2="248.8" stroke="#67bdaa" stroke-width="2" opacity="0.75"/>
<circle cx="247.9" cy="237.9" r="6" fill="none" stroke="#67bdaa" stroke-width="2" opacity="0.85"/>
<circle cx="269.3" cy="248.8" r="6" fill="#67bdaa" stroke="#0e0e0e" stroke-width="1.4"/>
<line x1="494.2" y1="281.5" x2="459.8" y2="284.9" stroke="#d67e2c" stroke-width="2" opacity="0.75"/>
<circle cx="494.2" cy="281.5" r="6" fill="none" stroke="#d67e2c" stroke-width="2" opacity="0.85"/>
<circle cx="459.8" cy="284.9" r="6" fill="#d67e2c" stroke="#0e0e0e" stroke-width="1.4"/>
<line x1="342.9" y1="128.8" x2="356.8" y2="110.3" stroke="#505ba6" stroke-width="2" opacity="0.75"/>
<circle cx="342.9" cy="128.8" r="6" fill="none" stroke="#505ba6" stroke-width="2" opacity="0.85"/>
<circle cx="356.8" cy="110.3" r="6" fill="#505ba6" stroke="#0e0e0e" stroke-width="1.4"/>
<line x1="520.9" y1="229.8" x2="486.8" y2="220.5" stroke="#c15a63" stroke-width="2" opacity="0.75"/>
<circle cx="520.9" cy="229.8" r="6" fill="none" stroke="#c15a63" stroke-width="2" opacity="0.85"/>
<circle cx="486.8" cy="220.5" r="6" fill="#c15a63" stroke="#0e0e0e" stroke-width="1.4"/>
<line x1="407.9" y1="196.3" x2="400.8" y2="187.7" stroke="#5e3c6c" stroke-width="2" opacity="0.75"/>
<circle cx="407.9" cy="196.3" r="6" fill="none" stroke="#5e3c6c" stroke-width="2" opacity="0.85"/>
<circle cx="400.8" cy="187.7" r="6" fill="#5e3c6c" stroke="#0e0e0e" stroke-width="1.4"/>
<line x1="341.1" y1="351.6" x2="330.5" y2="380.1" stroke="#9dbc40" stroke-width="2" opacity="0.75"/>
<circle cx="341.1" cy="351.6" r="6" fill="none" stroke="#9dbc40" stroke-width="2" opacity="0.85"/>
<circle cx="330.5" cy="380.1" r="6" fill="#9dbc40" stroke="#0e0e0e" stroke-width="1.4"/>
<line x1="469.6" y1="342.8" x2="433.4" y2="360.8" stroke="#e0a32e" stroke-width="2" opacity="0.75"/>
<circle cx="469.6" cy="342.8" r="6" fill="none" stroke="#e0a32e" stroke-width="2" opacity="0.85"/>
<circle cx="433.4" cy="360.8" r="6" fill="#e0a32e" stroke="#0e0e0e" stroke-width="1.4"/>
<line x1="345.6" y1="163.2" x2="355.2" y2="151.8" stroke="#383d96" stroke-width="2" opacity="0.75"/>
<circle cx="345.6" cy="163.2" r="6" fill="none" stroke="#383d96" stroke-width="2" opacity="0.85"/>
<circle cx="355.2" cy="151.8" r="6" fill="#383d96" stroke="#0e0e0e" stroke-width="1.4"/>
<line x1="307.2" y1="291.7" x2="310.3" y2="309.9" stroke="#469449" stroke-width="2" opacity="0.75"/>
<circle cx="307.2" cy="291.7" r="6" fill="none" stroke="#469449" stroke-width="2" opacity="0.85"/>
<circle cx="310.3" cy="309.9" r="6" fill="#469449" stroke="#0e0e0e" stroke-width="1.4"/>
<line x1="523.5" y1="235.1" x2="488.2" y2="226.9" stroke="#af363c" stroke-width="2" opacity="0.75"/>
<circle cx="523.5" cy="235.1" r="6" fill="none" stroke="#af363c" stroke-width="2" opacity="0.85"/>
<circle cx="488.2" cy="226.9" r="6" fill="#af363c" stroke="#0e0e0e" stroke-width="1.4"/>
<line x1="444.9" y1="371.9" x2="410.7" y2="397.7" stroke="#e7c71f" stroke-width="2" opacity="0.75"/>
<circle cx="444.9" cy="371.9" r="6" fill="none" stroke="#e7c71f" stroke-width="2" opacity="0.85"/>
<circle cx="410.7" cy="397.7" r="6" fill="#e7c71f" stroke="#0e0e0e" stroke-width="1.4"/>
<line x1="513.0" y1="166.0" x2="487.6" y2="144.0" stroke="#bb5695" stroke-width="2" opacity="0.75"/>
<circle cx="513.0" cy="166.0" r="6" fill="none" stroke="#bb5695" stroke-width="2" opacity="0.85"/>
<circle cx="487.6" cy="144.0" r="6" fill="#bb5695" stroke="#0e0e0e" stroke-width="1.4"/>
<line x1="282.2" y1="172.1" x2="303.9" y2="166.9" stroke="#0885a1" stroke-width="2" opacity="0.75"/>
<circle cx="282.2" cy="172.1" r="6" fill="none" stroke="#0885a1" stroke-width="2" opacity="0.85"/>
<circle cx="303.9" cy="166.9" r="6" fill="#0885a1" stroke="#0e0e0e" stroke-width="1.4"/>
<text x="360" y="446" fill="#8a8a8a" text-anchor="middle">red &#8596; green</text>
<text x="360" y="466" fill="#8a8a8a" text-anchor="middle" font-size="12">24 chart patches &#183; open = measured, filled = corrected &#183; greys stay centred</text>
<text x="148" y="222" fill="#8a8a8a" text-anchor="middle" transform="rotate(-90 148 222)">blue &#8596; green</text>
</svg>
